<svg width="7" height="6" viewBox="0 0 7 6" fill="none" xmlns="http://www.w3.org/2000/svg">
<g clip-path="url(#clip0)">
<path d="M0.379661 0.779381C0.166102 0.779381 0 0.606186 0 0.395876C0 0.173196 0.166102 0 0.379661 0H6.6322C6.8339 0 7 0.173196 7 0.395876C7 0.606186 6.8339 0.791753 6.62034 0.791753H0.379661V0.779381Z" fill="black"/>
<path d="M0.379661 3.38968C0.166102 3.38968 0 3.21649 0 2.99381C0 2.7835 0.166102 2.59793 0.379661 2.59793H6.6322C6.8339 2.59793 7.01186 2.77113 7.01186 2.99381C7.01186 3.20412 6.84576 3.38968 6.6322 3.38968H0.379661Z" fill="black"/>
<path d="M0.379661 6C0.166102 6 0 5.81444 0 5.60413C0 5.39382 0.166102 5.20825 0.379661 5.20825H6.6322C6.8339 5.20825 7.01186 5.38145 7.01186 5.60413C7.01186 5.81444 6.84576 6 6.6322 6H0.379661Z" fill="black"/>
</g>
<defs>
<clipPath id="clip0">
<rect width="7" height="6" fill="white"/>
</clipPath>
</defs>
</svg>
