<svg xmlns="http://www.w3.org/2000/svg" xmlns:xlink="http://www.w3.org/1999/xlink" preserveAspectRatio="xMidYMid" width="75" height="90" viewBox="0 0 50 60">
  <defs>
    <style>
      .cls-1 {
        fill: #000;
        fill-rule: evenodd;
      }
    </style>
  </defs>
  <path d="M48.000,60.000 L2.000,60.000 C0.898,60.000 0.000,59.103 0.000,58.000 L0.000,18.000 C0.000,16.898 0.898,16.000 2.000,16.000 L16.956,16.000 C17.509,16.000 17.956,16.448 17.956,17.000 C17.956,17.553 17.509,18.000 16.956,18.000 L2.000,18.000 L2.000,58.000 L48.000,58.000 L48.000,18.000 L32.956,18.000 C32.403,18.000 31.956,17.553 31.956,17.000 C31.956,16.448 32.403,16.000 32.956,16.000 L48.000,16.000 C49.102,16.000 50.000,16.898 50.000,18.000 L50.000,58.000 C50.000,59.103 49.102,60.000 48.000,60.000 ZM32.249,30.293 C32.640,29.903 33.272,29.903 33.663,30.293 C34.054,30.684 34.054,31.317 33.663,31.707 L25.664,39.707 C25.571,39.799 25.461,39.872 25.338,39.923 C25.216,39.973 25.086,40.000 24.956,40.000 C24.826,40.000 24.696,39.973 24.574,39.923 C24.451,39.872 24.341,39.799 24.248,39.707 L16.249,31.707 C15.858,31.317 15.858,30.684 16.249,30.293 C16.640,29.903 17.272,29.903 17.663,30.293 L23.956,36.586 L23.956,1.000 C23.956,0.447 24.403,0.000 24.956,0.000 C25.509,0.000 25.956,0.447 25.956,1.000 L25.956,36.586 L32.249,30.293 Z" class="cls-1"/>
</svg>
