<svg width="6" height="6" viewBox="0 0 6 6" fill="none" xmlns="http://www.w3.org/2000/svg">
<path d="M0.75473 3.01844V5.99998H2.3302V4.07075H3.67926V5.99998H5.26416V3.01844L3.00945 0.812286L0.75473 3.01844Z" fill="black"/>
<path d="M3.20755 0.0830625C3.19811 0.0738317 3.18868 0.0646009 3.17925 0.0553702L3.16981 0.0461394C3.16038 0.0369086 3.15094 0.0369086 3.13208 0.0276778L3.12264 0.0184471C3.11321 0.00921631 3.09434 0.00921631 3.08491 0.00921631H3.07547C3.0566 0.00921631 3.04717 0.00921631 3.0283 0.00921631H3.01887C3.00943 0.00921631 2.99057 0.00921631 2.98113 0.00921631H2.9717C2.96226 0.00921631 2.95283 0.0184471 2.9434 0.0184471C2.93396 0.0184471 2.93396 0.0184471 2.92453 0.0276778C2.91509 0.0276778 2.90566 0.0369086 2.89623 0.0369086C2.88679 0.0369086 2.87736 0.0461394 2.87736 0.0461394C2.86792 0.0553702 2.85849 0.0553702 2.85849 0.0646009C2.84906 0.0738317 2.83962 0.0738317 2.83962 0.0830625L0 2.8246L0.396226 3.21229L3.00943 0.664601L5.60377 3.21229L6 2.8246L3.20755 0.0830625Z" fill="black"/>
<path d="M5.12265 0.359985H3.90567V0.636908L5.12265 1.82768V0.359985Z" fill="black"/>
</svg>
