<svg xmlns="http://www.w3.org/2000/svg" xmlns:xlink="http://www.w3.org/1999/xlink" preserveAspectRatio="xMidYMid" width="72" height="96" viewBox="0 0 36 48">
  <defs>
    <style>
      .cls-1 {
        fill: #000;
        fill-rule: evenodd;
      }
    </style>
  </defs>
  <path d="M18.646,47.763 C18.459,47.921 18.230,48.000 18.000,48.000 C17.770,48.000 17.541,47.921 17.354,47.763 C16.647,47.164 -0.000,32.927 -0.000,17.818 C-0.000,7.993 8.075,-0.000 18.000,-0.000 C27.925,-0.000 36.000,7.993 36.000,17.818 C36.000,32.927 19.353,47.164 18.646,47.763 ZM18.000,1.999 C9.178,1.999 2.000,9.095 2.000,17.818 C2.000,30.388 14.932,42.878 18.000,45.663 C21.066,42.877 34.000,30.377 34.000,17.818 C34.000,9.095 26.822,1.999 18.000,1.999 ZM18.000,27.000 C13.037,27.000 9.000,22.962 9.000,17.999 C9.000,13.037 13.037,8.999 18.000,8.999 C22.963,8.999 27.000,13.037 27.000,17.999 C27.000,22.962 22.963,27.000 18.000,27.000 ZM18.000,10.999 C14.141,10.999 11.000,14.139 11.000,17.999 C11.000,21.860 14.141,24.999 18.000,24.999 C21.859,24.999 25.000,21.860 25.000,17.999 C25.000,14.139 21.859,10.999 18.000,10.999 Z" class="cls-1"/>
</svg>
