<svg width="118" height="94" viewBox="0 0 118 94" fill="none" xmlns="http://www.w3.org/2000/svg">
<path d="M77.5545 6.7056C86.8521 6.7056 94.4 45.7845 94.4 94H107.889C107.889 42.0772 94.2983 0 77.5545 0C68.0128 0 59.5086 12.6414 53.9545 32.4341C48.38 12.6414 39.8759 0 30.3341 0C13.5903 0 0 42.0772 0 94H13.4886C13.4886 45.8047 21.0366 6.72586 30.3341 6.72586C39.6521 6.72586 47.2 42.8065 47.2 87.2944H60.6886C60.6886 42.7862 68.2366 6.7056 77.5545 6.7056Z" fill="#FFC300"/>
<path d="M114.643 87.2741C116.474 87.2741 118 88.7125 118 90.6168C118 92.5414 116.474 93.9797 114.643 93.9797C112.812 93.9797 111.266 92.5414 111.266 90.6168C111.245 88.7328 112.792 87.2741 114.643 87.2741ZM114.643 93.5138C116.189 93.5138 117.39 92.278 117.39 90.6371C117.39 89.0164 116.189 87.7806 114.643 87.7806C113.077 87.7806 111.876 89.0164 111.876 90.6371C111.876 92.2578 113.077 93.5138 114.643 93.5138ZM113.321 88.672H114.847C115.782 88.672 116.21 89.0366 116.21 89.7862C116.21 90.4953 115.762 90.7991 115.192 90.8599L116.311 92.6022H115.66L114.602 90.9207H113.931V92.6022H113.321V88.672ZM113.931 90.4142H114.562C115.091 90.4142 115.599 90.394 115.599 89.766C115.599 89.2392 115.152 89.1582 114.745 89.1582H113.931V90.4142Z" fill="#FFC300"/>
</svg>
