<svg width="64" height="61" viewBox="0 0 64 61" fill="none" xmlns="http://www.w3.org/2000/svg">
<g clip-path="url(#clip0)">
<ellipse cx="33.2522" cy="30.2019" rx="27.7858" ry="27.7858" fill="#FFBC0D"/>
<path d="M42.2877 32.2575H2.68542C1.55722 32.2575 0.634155 31.3296 0.634155 30.1955C0.634155 29.0614 1.55722 28.1335 2.68542 28.1335H42.2877C43.4159 28.1335 44.3389 29.0614 44.3389 30.1955C44.3389 31.3425 43.4159 32.2575 42.2877 32.2575Z" fill="black"/>
<path d="M31.3647 43.2376C30.839 43.2376 30.3134 43.0314 29.916 42.6319C29.1211 41.8329 29.1211 40.5184 29.916 39.7193L39.3902 30.1955L29.916 20.6716C29.1211 19.8726 29.1211 18.558 29.916 17.759C30.7108 16.96 32.0185 16.96 32.8134 17.759L43.7364 28.7392C44.5312 29.5382 44.5312 30.8527 43.7364 31.6518L32.8134 42.6319C32.416 43.0443 31.8903 43.2376 31.3647 43.2376Z" fill="black"/>
<path d="M33.416 60.4038C20.9802 60.4038 10.0059 52.8904 5.45465 41.253C5.0444 40.1962 5.55721 38.9977 6.60849 38.5853C7.65976 38.1729 8.85206 38.6884 9.26231 39.7451C13.1982 49.7974 22.6725 56.2798 33.416 56.2798C47.7235 56.2798 59.3645 44.578 59.3645 30.1955C59.3645 15.813 47.7107 4.12401 33.416 4.12401C22.6725 4.12401 13.1982 10.6064 9.26231 20.6587C8.83924 21.7155 7.65976 22.231 6.60849 21.8186C5.55721 21.4062 5.0444 20.2076 5.45465 19.1509C10.0059 7.51343 20.9802 0 33.416 0C49.9799 0 63.4542 13.5448 63.4542 30.1955C63.4542 46.8462 49.9799 60.4038 33.416 60.4038Z" fill="black"/>
</g>
<defs>
<clipPath id="clip0">
<rect width="62.82" height="60.4039" fill="white" transform="translate(0.634155)"/>
</clipPath>
</defs>
</svg>
