<svg width="6" height="6" viewBox="0 0 6 6" fill="none" xmlns="http://www.w3.org/2000/svg">
<path d="M3 0C1.34667 0 0 1.34667 0 3C0 4.65333 1.34667 6 3 6C4.65333 6 6 4.65333 6 3C6 1.34667 4.65333 0 3 0ZM3 5.66667C1.52667 5.66667 0.333333 4.47333 0.333333 3C0.333333 1.52667 1.52667 0.333333 3 0.333333C4.47333 0.333333 5.66667 1.52667 5.66667 3C5.66667 4.47333 4.47333 5.66667 3 5.66667Z" fill="black"/>
<path d="M3.99998 2.83334H3.16665V2.00001C3.16665 1.90668 3.09331 1.83334 2.99998 1.83334C2.90665 1.83334 2.83331 1.90668 2.83331 2.00001V2.83334H1.99998C1.90665 2.83334 1.83331 2.90668 1.83331 3.00001C1.83331 3.09334 1.90665 3.16668 1.99998 3.16668H2.83331V4.00001C2.83331 4.09334 2.90665 4.16668 2.99998 4.16668C3.09331 4.16668 3.16665 4.09334 3.16665 4.00001V3.16668H3.99998C4.09331 3.16668 4.16665 3.09334 4.16665 3.00001C4.16665 2.90668 4.09331 2.83334 3.99998 2.83334Z" fill="black"/>
</svg>
