<svg width="9" height="8" viewBox="0 0 9 8" fill="none" xmlns="http://www.w3.org/2000/svg">
<path fill-rule="evenodd" clip-rule="evenodd" d="M7.28571 5.52809L1.42857 5.54307C0.642857 5.54307 0 4.86891 0 4.04494C0 3.22097 0.642857 2.54682 1.42857 2.54682C1.52857 2.54682 1.62857 2.5618 1.71429 2.57678C1.78571 1.13858 2.9 0 4.28571 0C5.37143 0 6.3 0.70412 6.67143 1.70786C6.81429 1.66292 6.97143 1.64794 7.14286 1.64794C8.17143 1.64794 9 2.51685 9 3.59551C9 4.61423 8.24286 5.45318 7.28571 5.52809ZM1.6 5.78277C1.62857 6.3221 1.65714 6.57678 1.54286 6.78652C1.42857 6.99625 1.15714 7.07116 0.957143 6.95131C0.757143 6.83146 0.685714 6.54682 0.8 6.33708C0.928571 6.12734 1.14286 6.02247 1.6 5.78277ZM2.54286 6.8015C2.57143 7.23596 2.58571 7.43071 2.5 7.61049C2.4 7.77528 2.2 7.83521 2.02857 7.74532C1.87143 7.64045 1.81429 7.43071 1.9 7.25094C2 7.07116 2.17143 6.99625 2.54286 6.8015ZM3.88571 5.78277C3.91429 6.3221 3.94286 6.57678 3.82857 6.78652C3.71429 6.99625 3.44286 7.07116 3.24286 6.95131C3.04286 6.83146 2.97143 6.54682 3.08571 6.33708C3.2 6.12734 3.42857 6.02247 3.88571 5.78277ZM4.85714 6.89139C4.88571 7.37079 4.91429 7.59551 4.8 7.79026C4.7 7.98502 4.45714 8.04494 4.27143 7.94007C4.08571 7.83521 4.02857 7.58052 4.12857 7.38577C4.24286 7.19101 4.44286 7.10112 4.85714 6.89139ZM6.31429 5.78277C6.34286 6.3221 6.37143 6.57678 6.25714 6.78652C6.14286 6.99625 5.87143 7.07116 5.67143 6.95131C5.47143 6.83146 5.4 6.54682 5.51429 6.33708C5.62857 6.12734 5.85714 6.02247 6.31429 5.78277ZM7.6 6.0824C7.62857 6.62172 7.65714 6.8764 7.54286 7.08614C7.42857 7.29588 7.15714 7.37079 6.95714 7.25094C6.75714 7.13109 6.68571 6.84644 6.8 6.6367C6.91429 6.42697 7.14286 6.3221 7.6 6.0824Z" fill="black"/>
</svg>
