<svg width="63" height="63" viewBox="0 0 63 63" fill="none" xmlns="http://www.w3.org/2000/svg">
<g clip-path="url(#clip0)">
<path d="M61.6641 63H1.33594C0.5625 63 0 62.3672 0 61.6641V1.33594C0 0.5625 0.632812 0 1.33594 0C2.03906 0 2.67188 0.632812 2.67188 1.33594V60.3281H61.6641C62.4375 60.3281 63 60.9609 63 61.6641C63 62.3672 62.3672 63 61.6641 63Z" fill="black"/>
<path d="M6.60937 36.9844C6.25781 36.9844 5.90625 36.8437 5.625 36.5625C5.13281 36 5.13281 35.1562 5.69531 34.6641L27.3516 14.4844C27.8438 14.0625 28.5469 13.9922 29.0391 14.4141L53.5078 32.9062L60.6094 24.6797C61.1016 24.1172 61.9453 24.0469 62.5078 24.5391C63.0703 25.0312 63.1406 25.875 62.6484 26.4375L54.7031 35.5781C54.2109 36.1406 53.4375 36.2109 52.875 35.7891L28.4063 17.2266L7.52343 36.6328C7.24218 36.8437 6.96093 36.9844 6.60937 36.9844Z" fill="black"/>
<path d="M48.0938 25.3828L62.7891 2.03906C63.2109 1.40625 63 0.562502 62.3672 0.210939C61.7344 -0.210936 60.8906 1.93715e-06 60.5391 0.632814L45.9141 23.7656L48.0938 25.3828Z" fill="black"/>
<path d="M41.625 30.5859L35.1563 40.7812L23.5547 30.5156C23.2734 30.2344 22.8516 30.1641 22.5 30.1641C22.0781 30.2344 21.7969 30.4453 21.5859 30.7969L5.48438 56.1797C5.0625 56.8125 5.27344 57.6562 5.90625 58.0078C6.11719 58.1484 6.39844 58.2188 6.60938 58.2188C7.03125 58.2188 7.52344 58.0078 7.73438 57.5859L22.9219 33.4687L34.5234 43.7344C34.8047 44.0156 35.2266 44.0859 35.5781 44.0859C36 44.0156 36.2813 43.8047 36.4922 43.4531L43.7344 32.2031L41.625 30.5859Z" fill="black"/>
</g>
<defs>
<clipPath id="clip0">
<rect width="63" height="63" fill="white"/>
</clipPath>
</defs>
</svg>
