<svg width="7" height="7" viewBox="0 0 7 7" fill="none" xmlns="http://www.w3.org/2000/svg">
<g clip-path="url(#clip0)">
<path fill-rule="evenodd" clip-rule="evenodd" d="M6.02408 3.49398C6.02408 3.80723 7.07227 4.12048 6.98794 4.43373C6.9036 4.73494 5.84336 4.49398 5.68673 4.77108C5.5301 5.03614 6.27709 5.83133 6.06022 6.04819C5.83131 6.27711 5.03613 5.53012 4.77107 5.68675C4.49396 5.84337 4.74697 6.90361 4.44577 6.98795C4.14456 7.07229 3.81926 6.0241 3.50601 6.0241C3.19275 6.0241 2.8795 7.07229 2.5783 6.98795C2.27709 6.90361 2.5301 5.85542 2.253 5.68675C1.98794 5.53012 1.18071 6.27711 0.951791 6.04819C0.722875 5.81928 1.46986 5.0241 1.31324 4.75904C1.15661 4.48193 0.0963689 4.73494 0.0120316 4.43373C-0.0723058 4.13253 0.975887 3.80723 0.975887 3.49398C0.975887 3.18072 -0.0723058 2.86747 0.0120316 2.56627C0.0963689 2.26506 1.15661 2.50602 1.31324 2.22892C1.46986 1.96386 0.722875 1.16867 0.951791 0.939759C1.18071 0.710843 1.97589 1.45783 2.24095 1.3012C2.50601 1.14458 2.26504 0.0843374 2.56625 2.04891e-08C2.86745 -0.0843373 3.18071 0.963855 3.49396 0.963855C3.80721 0.963855 4.13251 -0.0843373 4.43372 2.04891e-08C4.73492 0.0843374 4.48191 1.14458 4.75902 1.3012C5.02408 1.45783 5.81926 0.710843 6.04818 0.939759C6.27709 1.16867 5.5301 1.95181 5.67468 2.21687C5.84336 2.49398 6.9036 2.25301 6.98794 2.56627C7.07227 2.86747 6.02408 3.18072 6.02408 3.49398ZM3.49396 1.20482C2.2289 1.20482 1.2048 2.22892 1.2048 3.49398C1.2048 4.75904 2.2289 5.78313 3.49396 5.78313C4.75902 5.78313 5.78312 4.75904 5.78312 3.49398C5.78312 2.22892 4.75902 1.20482 3.49396 1.20482ZM3.49396 5.55422C2.36143 5.55422 1.43372 4.62651 1.43372 3.49398C1.43372 2.36145 2.36143 1.43373 3.49396 1.43373C4.62649 1.43373 5.5542 2.36145 5.5542 3.49398C5.5542 4.62651 4.63854 5.55422 3.49396 5.55422Z" fill="black"/>
</g>
<defs>
<clipPath id="clip0">
<rect width="7" height="7" fill="white"/>
</clipPath>
</defs>
</svg>
