<svg width="28" height="32" viewBox="0 0 28 32" fill="none" xmlns="http://www.w3.org/2000/svg">
<g clip-path="url(#clip0)">
<path d="M10.2261 19.6491C11.1594 20.2105 11.8898 20.9724 12.458 21.8546C13.0667 22.8571 13.4319 24.0602 13.4319 25.3033C13.4319 27.1479 12.6609 28.792 11.4435 29.995C10.2261 31.198 8.56231 31.9599 6.69564 31.9599C4.82898 31.9599 3.16521 31.198 1.94782 29.995C0.730426 28.792 -0.0405884 27.1479 -0.0405884 25.3033C-0.0405884 24.02 0.324629 22.8571 0.933325 21.8546C1.50144 20.9323 2.27245 20.2105 3.16521 19.6491V3.80952C3.16521 2.84712 3.57101 2.00501 4.1797 1.36341C4.7884 0.721804 5.68115 0.360902 6.65506 0.360902C7.62898 0.360902 8.48115 0.761905 9.13043 1.36341C9.7797 2.00501 10.1449 2.84712 10.1449 3.80952C10.2261 3.80952 10.2261 19.6491 10.2261 19.6491ZM26.4174 2.80702L25.1188 4.09023L23.942 2.92732L25.2406 1.64411L26.4174 2.80702ZM28 8.34085H26.1739V6.73684H28V8.34085ZM25.2 13.3534L23.9014 12.0702L25.0783 10.9073L26.3768 12.1905L25.2 13.3534ZM19.6 14.9173V13.1128H21.2232V14.9173H19.6ZM14.4869 12.1504L15.7855 10.8672L16.9623 12.0301L15.6638 13.3133L14.4869 12.1504ZM12.9043 6.61654H14.7304V8.22055H12.9043V6.61654ZM15.7449 1.56391L17.0435 2.84712L15.8667 4.01003L14.5681 2.72682L15.7449 1.56391ZM21.3449 0V1.80451H19.7217V0H21.3449ZM20.4927 2.76692C21.7913 2.76692 22.9681 3.28822 23.7797 4.13033C24.6319 4.97243 25.1594 6.09524 25.1594 7.37845C25.1594 8.66165 24.6319 9.78446 23.7797 10.6266C22.9275 11.4687 21.7913 11.99 20.4927 11.99C19.2348 11.99 18.058 11.4687 17.2058 10.6266C16.3536 9.78446 15.8261 8.66165 15.8261 7.37845C15.8261 6.09524 16.3536 4.97243 17.2058 4.13033C18.058 3.24812 19.2348 2.76692 20.4927 2.76692ZM22.6435 5.25313C22.1159 4.73183 21.3449 4.37093 20.4927 4.37093C19.6812 4.37093 18.9101 4.69173 18.342 5.25313C17.8145 5.77444 17.4493 6.53634 17.4493 7.37845C17.4493 8.22055 17.7739 8.94236 18.342 9.50376C18.8696 10.0251 19.6406 10.386 20.4927 10.386C21.3449 10.386 22.0754 10.0652 22.6435 9.50376C23.171 8.98246 23.5362 8.22055 23.5362 7.37845C23.5362 6.53634 23.171 5.77444 22.6435 5.25313ZM7.75072 21.1328V3.80952C7.75072 3.24812 7.26376 2.76692 6.69564 2.76692C6.12753 2.76692 5.68115 3.24812 5.68115 3.80952V21.1328L4.7884 21.5739C3.36811 22.2957 2.47535 23.7393 2.47535 25.3434C2.47535 27.6692 4.3826 29.5539 6.73622 29.5539C9.08985 29.5539 10.9971 27.6692 10.9971 25.3434C10.9971 23.7393 10.1043 22.2957 8.68405 21.5739L7.75072 21.1328ZM11.0783 22.6967C10.5913 21.8947 9.90144 21.2531 9.04927 20.8521L8.60289 20.6115V20.1303V3.80952C8.60289 3.28822 8.39999 2.84712 8.07535 2.52632C7.75072 2.20551 7.26376 2.00501 6.73622 2.00501C6.20869 2.00501 5.76231 2.20551 5.39709 2.56642C5.07246 2.88722 4.86956 3.36842 4.86956 3.84962V20.1704V20.6516L4.42318 20.8521C3.57101 21.2531 2.88115 21.9348 2.39419 22.6967C1.90724 23.4586 1.62318 24.381 1.62318 25.3434C1.62318 26.7469 2.1913 27.99 3.12463 28.9123C4.05796 29.8346 5.31593 30.396 6.73622 30.396C8.15651 30.396 9.41448 29.8346 10.3478 28.9123C11.2812 27.99 11.8493 26.7469 11.8493 25.3434C11.8087 24.381 11.5246 23.4586 11.0783 22.6967Z" fill="black"/>
</g>
<defs>
<clipPath id="clip0">
<rect width="28" height="32" fill="white"/>
</clipPath>
</defs>
</svg>
