<svg width="63" height="63" viewBox="0 0 63 63" fill="none" xmlns="http://www.w3.org/2000/svg">
<g clip-path="url(#clip0)">
<path d="M31.4097 47.1146C22.7475 47.1146 15.7049 40.072 15.7049 31.4097C15.7049 22.7475 22.7475 15.7049 31.4097 15.7049C40.072 15.7049 47.1146 22.7475 47.1146 31.4097C47.1146 40.072 40.072 47.1146 31.4097 47.1146ZM31.4097 18.3183C24.1953 18.3183 18.3183 24.1953 18.3183 31.4097C18.3183 38.6242 24.1953 44.5012 31.4097 44.5012C38.6242 44.5012 44.5012 38.6242 44.5012 31.4097C44.5012 24.1953 38.6242 18.3183 31.4097 18.3183Z" fill="black"/>
<path d="M36.6488 37.9494C36.3789 37.9494 36.0967 37.8635 35.8636 37.6917L30.6245 33.7655C30.2932 33.5201 30.0969 33.1275 30.0969 32.7226V24.8701C30.0969 24.1462 30.6859 23.5573 31.4098 23.5573C32.1337 23.5573 32.7226 24.1462 32.7226 24.8701V32.0723L37.434 35.6059C38.0107 36.0353 38.1334 36.8574 37.704 37.434C37.434 37.7776 37.0414 37.9494 36.6488 37.9494Z" fill="black"/>
<path d="M2.01219 39.2622C1.41099 39.2622 0.87113 38.845 0.736166 38.2438C0.245389 36.0721 0 33.7655 0 31.4098C0 14.0853 14.0853 0 31.4098 0C41.2376 0 50.3047 4.47834 56.2922 12.294C56.7339 12.8706 56.6234 13.6927 56.0468 14.1344C55.4824 14.5761 54.6481 14.4657 54.2186 13.889C48.7219 6.72365 40.4155 2.61339 31.4098 2.61339C15.5331 2.61339 2.61339 15.5331 2.61339 31.4098C2.61339 33.5692 2.84651 35.6795 3.28821 37.6672C3.44771 38.3665 3.00601 39.0782 2.29438 39.2254C2.2085 39.2499 2.11034 39.2622 2.01219 39.2622Z" fill="black"/>
<path d="M31.4097 62.8195C21.5819 62.8195 12.5148 58.3412 6.52732 50.5255C6.08562 49.9489 6.19605 49.1268 6.77271 48.6851C7.3371 48.2434 8.17143 48.3538 8.60086 48.9305C14.0976 56.0836 22.404 60.1938 31.4097 60.1938C47.2864 60.1938 60.2061 47.2741 60.2061 31.3975C60.2061 29.2013 59.973 27.1032 59.5067 25.1523C59.335 24.453 59.7767 23.7414 60.476 23.5819C61.1877 23.4101 61.887 23.8518 62.0588 24.5511C62.5741 26.6983 62.8318 28.9927 62.8318 31.3975C62.8195 48.7342 48.7342 62.8195 31.4097 62.8195Z" fill="black"/>
<path d="M6.67457 62.8195C5.96294 62.8195 5.37401 62.2428 5.36174 61.5189L5.22678 48.4275C5.22678 48.0839 5.36174 47.7404 5.60713 47.495C5.85252 47.2496 6.18379 47.1024 6.53961 47.1024H19.6311C20.355 47.1024 20.9439 47.6913 20.9439 48.4152C20.9439 49.1391 20.355 49.728 19.6311 49.728H7.8647L7.9874 61.4944C7.99967 62.2183 7.41074 62.8072 6.68684 62.8195H6.67457Z" fill="black"/>
<path d="M56.2799 15.7049H43.1884C42.4645 15.7049 41.8756 15.1159 41.8756 14.392C41.8756 13.6682 42.4645 13.0792 43.1884 13.0792H54.9671V1.30056C54.9671 0.588933 55.556 0 56.2799 0C57.0038 0 57.5927 0.588933 57.5927 1.31283V14.4043C57.5805 15.1159 57.0038 15.7049 56.2799 15.7049Z" fill="black"/>
</g>
<defs>
<clipPath id="clip0">
<rect width="62.8195" height="62.8195" fill="white"/>
</clipPath>
</defs>
</svg>
