<svg width="65" height="65" viewBox="0 0 65 65" fill="none" xmlns="http://www.w3.org/2000/svg">
<path d="M29.1865 49.207C28.666 49.207 28.2344 49.6387 28.2344 50.1592V57.4463C28.2344 57.9668 28.666 58.3984 29.1865 58.3984C29.707 58.3984 30.1387 57.9668 30.1387 57.4463V50.1592C30.1387 49.6387 29.707 49.207 29.1865 49.207Z" fill="#A9C23F"/>
<path d="M21.4805 49.207C20.96 49.207 20.5283 49.6387 20.5283 50.1592V57.4463C20.5283 57.9668 20.96 58.3984 21.4805 58.3984C22.001 58.3984 22.4326 57.9668 22.4326 57.4463V50.1592C22.4326 49.6387 22.001 49.207 21.4805 49.207Z" fill="#A9C23F"/>
<path d="M25.3398 49.6641C24.8193 49.6641 24.3877 50.0957 24.3877 50.6162V62.0674C24.3877 62.5879 24.8193 63.0195 25.3398 63.0195C25.8604 63.0195 26.292 62.5879 26.292 62.0674V50.6162C26.292 50.0957 25.8604 49.6641 25.3398 49.6641Z" fill="#A9C23F"/>
<path d="M50.3877 23.3848H57.6748C58.1953 23.3848 58.627 22.9531 58.627 22.4326C58.627 21.9121 58.1953 21.4805 57.6748 21.4805H50.3877C49.8672 21.4805 49.4355 21.9121 49.4355 22.4326C49.4355 22.9531 49.8672 23.3848 50.3877 23.3848Z" fill="#A9C23F"/>
<path d="M57.6875 29.1865H50.4004C49.8799 29.1865 49.4482 29.6182 49.4482 30.1387C49.4482 30.6592 49.8799 31.0908 50.4004 31.0908H57.6875C58.208 31.0908 58.6396 30.6592 58.6396 30.1387C58.6396 29.6182 58.208 29.1865 57.6875 29.1865Z" fill="#A9C23F"/>
<path d="M62.3594 25.3271H50.6797C50.1592 25.3271 49.7275 25.7588 49.7275 26.2793C49.7275 26.7998 50.1592 27.2314 50.6797 27.2314H62.3594C62.8799 27.2314 63.3115 26.7998 63.3115 26.2793C63.3115 25.7588 62.8926 25.3271 62.3594 25.3271Z" fill="#A9C23F"/>
<path d="M59.2236 64.7715L46.084 51.6445C45.7793 51.3398 45.7793 50.8447 46.084 50.54L50.5273 46.0967C50.832 45.792 51.3271 45.792 51.6318 46.0967L64.7588 59.2236C65.0635 59.5283 65.0635 60.0235 64.7588 60.3281L60.3154 64.7715C60.0234 65.0762 59.5283 65.0762 59.2236 64.7715Z" fill="#FFBC0D"/>
<path d="M50.5273 46.084L47.7471 48.8643C48.0518 48.5596 48.5469 48.5596 48.8516 48.8643L61.9785 61.9912C62.2832 62.2959 62.2832 62.791 61.9785 63.0957L64.7588 60.3154C65.0635 60.0108 65.0635 59.5156 64.7588 59.2109L51.6445 46.084C51.3271 45.7793 50.832 45.7793 50.5273 46.084Z" fill="#FFBC0D"/>
<path d="M40.8662 43.6465L43.6338 40.8789L49.6768 46.9219L46.9092 49.6895L40.8662 43.6465Z" fill="#FFBC0D"/>
<path d="M48.5342 54.0947L54.082 48.5469L56.8496 51.3145L51.3018 56.8623L48.5342 54.0947Z" fill="#A9C23F"/>
<path d="M51.3018 51.3145L54.0693 48.5469L56.8369 51.3145L54.082 54.0947L51.3018 51.3145Z" fill="#A9C23F"/>
<path d="M25.5049 51.0098C39.5908 51.0098 51.0098 39.5908 51.0098 25.5049C51.0098 11.4189 39.5908 0 25.5049 0C11.4189 0 0 11.4189 0 25.5049C0 39.5908 11.4189 51.0098 25.5049 51.0098Z" fill="#FFBC0D"/>
<path d="M25.5049 0C24.8447 0 24.1846 0.0253906 23.5371 0.0761719C36.7021 1.0791 47.0742 12.0859 47.0742 25.5049C47.0742 38.9238 36.7021 49.9307 23.5371 50.9336C24.1846 50.9844 24.8447 51.0098 25.5049 51.0098C39.584 51.0098 51.0098 39.5967 51.0098 25.5049C51.0098 11.4131 39.584 0 25.5049 0Z" fill="#FFBC0D"/>
<path d="M25.5049 47.0869C37.4243 47.0869 47.0869 37.4243 47.0869 25.5049C47.0869 13.5855 37.4243 3.92285 25.5049 3.92285C13.5855 3.92285 3.92285 13.5855 3.92285 25.5049C3.92285 37.4243 13.5855 47.0869 25.5049 47.0869Z" fill="#F3F3F3"/>
<path d="M25.5049 3.92285C24.8447 3.92285 24.1846 3.94824 23.5371 4.01172C34.5186 5.00195 43.1641 14.2695 43.1641 25.5049C43.1641 36.7402 34.5313 45.9951 23.5498 46.9981C24.1973 47.0615 24.8447 47.0869 25.5176 47.0869C37.4131 47.0869 47.0996 37.4004 47.0996 25.5049C47.0996 13.6094 37.4004 3.92285 25.5049 3.92285Z" fill="#E4E4E4"/>
<path d="M21.9121 25.9619H14.0664V14.4473C14.0664 14.1553 14.2949 13.9268 14.5869 13.9268H21.3916C21.6836 13.9268 21.9121 14.1553 21.9121 14.4473V25.9619Z" fill="#A9C23F"/>
<path d="M17.9766 13.9268V25.9619H21.8994V14.4473C21.8994 14.1553 21.6709 13.9268 21.3789 13.9268H17.9766Z" fill="#A9C23F"/>
<path d="M37.6035 25.9619H29.7578V19.4238C29.7578 19.1318 29.9863 18.9033 30.2783 18.9033H37.083C37.375 18.9033 37.6035 19.1318 37.6035 19.4238V25.9619Z" fill="#A9C23F"/>
<path d="M33.6807 18.9033V25.9619H37.6035V19.4238C37.6035 19.1318 37.375 18.9033 37.083 18.9033H33.6807Z" fill="#A9C23F"/>
<path d="M29.7578 25.9619H21.9121V9.4834C21.9121 9.19141 22.1406 8.96289 22.4326 8.96289H29.2373C29.5293 8.96289 29.7578 9.19141 29.7578 9.4834V25.9619Z" fill="#FFBC0D"/>
<path d="M25.835 8.96289V25.9619H29.7578V9.4834C29.7578 9.19141 29.5293 8.96289 29.2373 8.96289H25.835Z" fill="#FFBC0D"/>
<path d="M39.8887 25.0098H11.7686C11.248 25.0098 10.8164 25.4414 10.8164 25.9619C10.8164 26.4824 11.248 26.9141 11.7686 26.9141H39.9014C40.4219 26.9141 40.8535 26.4824 40.8535 25.9619C40.8535 25.4414 40.4219 25.0098 39.8887 25.0098Z" fill="#FFBC0D"/>
<path d="M36.8164 35.2803H32.1826L30.0752 29.8975C29.9355 29.5293 29.5674 29.2881 29.1738 29.2881C28.7803 29.2881 28.4248 29.542 28.2852 29.9102L25.3906 37.7178L23.3594 31.9668C23.2324 31.6113 22.915 31.3701 22.5469 31.332C22.1787 31.2939 21.8232 31.4844 21.6328 31.8145L19.7031 35.2803H15.082C14.5615 35.2803 14.1299 35.7119 14.1299 36.2324C14.1299 36.7529 14.5615 37.1846 15.082 37.1846H20.2617C20.6045 37.1846 20.9219 36.9941 21.0869 36.7022L22.2676 34.5947L24.4766 40.8408C24.6162 41.2217 24.9717 41.4756 25.3652 41.4756H25.3779C25.7715 41.4756 26.127 41.2217 26.2666 40.8535L29.2119 32.9189L30.6465 36.5752C30.7861 36.9434 31.1416 37.1846 31.5352 37.1846H36.8164C37.3369 37.1846 37.7686 36.7529 37.7686 36.2324C37.7686 35.7119 37.3369 35.2803 36.8164 35.2803Z" fill="#A9C23F"/>
</svg>
