<svg xmlns="http://www.w3.org/2000/svg" xmlns:xlink="http://www.w3.org/1999/xlink" preserveAspectRatio="xMidYMid" width="96" height="96" viewBox="0 0 48 48">
  <defs>
    <style>
      .cls-1 {
        fill: #000;
        fill-rule: evenodd;
      }
    </style>
  </defs>
  <path d="M41.107,40.803 C41.067,40.858 41.023,40.904 40.975,40.949 C36.628,45.302 30.623,48.000 24.000,48.000 C17.380,48.000 11.378,45.305 7.031,40.955 C6.980,40.909 6.933,40.859 6.892,40.802 C2.636,36.469 -0.000,30.538 -0.000,23.999 C-0.000,10.766 10.767,-0.001 24.000,-0.001 C37.233,-0.001 48.000,10.766 48.000,23.999 C48.000,30.539 45.364,36.470 41.107,40.803 ZM24.000,45.999 C29.543,45.999 34.599,43.923 38.471,40.528 L27.620,35.919 C27.612,35.916 27.607,35.909 27.600,35.906 C27.562,35.889 27.532,35.857 27.496,35.835 C27.406,35.779 27.323,35.719 27.256,35.641 C27.246,35.628 27.229,35.624 27.219,35.610 C27.192,35.576 27.185,35.534 27.163,35.497 C27.127,35.436 27.093,35.377 27.071,35.310 C27.051,35.249 27.043,35.189 27.035,35.125 C27.027,35.062 27.019,35.001 27.023,34.936 C27.027,34.867 27.046,34.802 27.064,34.734 C27.076,34.693 27.073,34.650 27.090,34.609 C27.098,34.591 27.113,34.581 27.121,34.564 C27.150,34.504 27.192,34.453 27.233,34.400 C27.275,34.346 27.313,34.292 27.364,34.249 C27.378,34.237 27.384,34.220 27.399,34.208 C31.489,31.049 31.998,25.325 32.003,25.267 L31.995,17.518 C31.418,14.591 27.760,12.038 24.083,12.000 C24.056,12.002 24.028,12.003 24.000,12.003 C20.296,12.003 16.587,14.572 16.005,17.520 L16.000,25.350 C16.004,25.350 16.543,31.055 20.625,34.208 C20.640,34.220 20.647,34.238 20.662,34.250 C20.711,34.293 20.749,34.346 20.790,34.399 C20.832,34.453 20.874,34.504 20.903,34.564 C20.912,34.581 20.927,34.592 20.935,34.609 C20.952,34.651 20.949,34.694 20.961,34.736 C20.979,34.803 20.997,34.867 21.001,34.936 C21.006,35.001 20.998,35.063 20.989,35.126 C20.981,35.189 20.973,35.249 20.953,35.311 C20.931,35.377 20.897,35.436 20.861,35.496 C20.840,35.534 20.832,35.575 20.805,35.610 C20.794,35.625 20.776,35.632 20.764,35.646 C20.720,35.697 20.666,35.736 20.611,35.779 C20.558,35.819 20.508,35.860 20.450,35.889 C20.433,35.897 20.422,35.913 20.404,35.920 L9.531,40.530 C13.403,43.924 18.458,45.999 24.000,45.999 ZM24.000,2.000 C11.869,2.000 2.000,11.869 2.000,23.999 C2.000,29.808 4.280,35.083 7.970,39.020 L18.182,34.690 C14.510,30.943 14.023,25.676 14.003,25.431 L14.005,17.427 C14.005,17.368 14.010,17.310 14.020,17.252 C14.784,12.948 19.727,10.047 23.906,10.004 C23.937,10.000 23.968,9.999 24.000,9.999 C28.198,9.999 33.210,12.914 33.980,17.251 C33.990,17.308 33.995,17.366 33.995,17.425 L34.000,25.346 C33.978,25.663 33.512,30.941 29.841,34.690 L40.032,39.017 C43.721,35.081 46.000,29.807 46.000,23.999 C46.000,11.869 36.131,2.000 24.000,2.000 Z" class="cls-1"/>
</svg>
