<svg width="8" height="4" viewBox="0 0 8 4" fill="none" xmlns="http://www.w3.org/2000/svg">
<path fill-rule="evenodd" clip-rule="evenodd" d="M7.08 4C6.74667 4 6 3.73333 6.01333 3.73333C6.02667 3.73333 5.37333 3.46667 5.08 3.46667C4.78667 3.46667 4 3.73333 4.01333 3.73333C4.02667 3.73333 3.30667 4 3.06667 4C2.72 4 2 3.73333 2.01333 3.73333C2.02667 3.73333 1.30667 3.46667 0.946667 3.46667C0.44 3.46667 0 3.73333 0 3.73333V3.46667C0 3.46667 0.426667 3.2 0.933333 3.2C1.29333 3.2 2 3.46667 2 3.46667C2 3.46667 2.72 3.73333 3.08 3.73333C3.32 3.73333 4 3.46667 4 3.46667C4 3.46667 4.77333 3.2 5.06667 3.2C5.37333 3.2 6.02667 3.46667 6.01333 3.46667C6 3.46667 6.73333 3.73333 7.06667 3.73333C7.58667 3.73333 8 3.46667 8 3.46667V3.73333C8 3.73333 7.58667 4 7.08 4ZM7.08 2.4C6.74667 2.4 6 2.13333 6.01333 2.13333C6.02667 2.13333 5.37333 1.86667 5.08 1.86667C4.78667 1.86667 4 2.13333 4.01333 2.13333C4.02667 2.13333 3.30667 2.4 3.06667 2.4C2.72 2.4 2 2.13333 2.01333 2.13333C2.02667 2.13333 1.30667 1.86667 0.946667 1.86667C0.44 1.86667 0 2.13333 0 2.13333V1.86667C0 1.86667 0.426667 1.6 0.933333 1.6C1.29333 1.6 2 1.86667 2 1.86667C2 1.86667 2.72 2.13333 3.08 2.13333C3.32 2.13333 4 1.86667 4 1.86667C4 1.86667 4.77333 1.6 5.06667 1.6C5.37333 1.6 6.02667 1.86667 6.01333 1.86667C6 1.86667 6.73333 2.13333 7.06667 2.13333C7.58667 2.13333 8 1.86667 8 1.86667V2.13333C8 2.13333 7.58667 2.4 7.08 2.4ZM7.08 0.8C6.74667 0.8 6 0.533333 6.01333 0.533333C6.02667 0.533333 5.37333 0.266667 5.08 0.266667C4.78667 0.266667 4 0.533333 4.01333 0.533333C4.02667 0.533333 3.30667 0.8 3.06667 0.8C2.72 0.8 2 0.533333 2.01333 0.533333C2.02667 0.533333 1.30667 0.266667 0.946667 0.266667C0.44 0.266667 0 0.533333 0 0.533333V0.266667C0 0.266667 0.426667 0 0.933333 0C1.29333 0 2 0.266667 2 0.266667C2 0.266667 2.72 0.533333 3.08 0.533333C3.32 0.533333 4 0.266667 4 0.266667C4 0.266667 4.77333 0 5.06667 0C5.37333 0 6.02667 0.266667 6.01333 0.266667C6 0.266667 6.73333 0.533333 7.06667 0.533333C7.58667 0.533333 8 0.266667 8 0.266667V0.533333C8 0.533333 7.58667 0.8 7.08 0.8Z" fill="black"/>
</svg>
