<svg width="6" height="6" viewBox="0 0 6 6" fill="none" xmlns="http://www.w3.org/2000/svg">
<path d="M3 0C2.20312 0 1.44375 0.309375 0.88125 0.88125C0.309375 1.44375 0 2.20312 0 3C0 3.79688 0.309375 4.55625 0.88125 5.11875C1.44375 5.68125 2.20312 6 3 6C3.79688 6 4.55625 5.69062 5.11875 5.11875C5.68125 4.55625 6 3.79688 6 3C6 2.20312 5.69062 1.44375 5.11875 0.88125C4.55625 0.309375 3.79688 0 3 0ZM4.85625 4.85625C4.35938 5.35313 3.70312 5.625 3 5.625C2.29688 5.625 1.64062 5.35313 1.14375 4.85625C0.646875 4.35938 0.375 3.70312 0.375 3C0.375 2.29688 0.646875 1.64062 1.14375 1.14375C1.64062 0.646875 2.29688 0.375 3 0.375C3.70312 0.375 4.35938 0.646875 4.85625 1.14375C5.35313 1.64062 5.625 2.29688 5.625 3C5.625 3.70312 5.35313 4.35938 4.85625 4.85625Z" fill="black"/>
<path d="M4.6875 2.8125H1.3125C1.20937 2.8125 1.125 2.89687 1.125 3C1.125 3.10313 1.20937 3.1875 1.3125 3.1875H4.6875C4.79063 3.1875 4.875 3.10313 4.875 3C4.875 2.89687 4.79063 2.8125 4.6875 2.8125Z" fill="black"/>
</svg>
