<svg width="6" height="6" viewBox="0 0 6 6" fill="none" xmlns="http://www.w3.org/2000/svg">
<path d="M3.42857 4.17391L5.25466 6L6 5.25466L4.17391 3.42857C4.69565 2.57143 4.58385 1.41615 3.83851 0.670807C2.98137 -0.223602 1.56522 -0.223602 0.670807 0.670807C-0.223602 1.52795 -0.223602 2.9441 0.670807 3.83851C1.45342 4.58385 2.57143 4.69565 3.42857 4.17391ZM1.22981 1.22981C1.82609 0.63354 2.75776 0.63354 3.35404 1.22981C3.95031 1.82609 3.95031 2.75776 3.35404 3.35404C2.75776 3.95031 1.82609 3.95031 1.22981 3.35404C0.63354 2.75776 0.63354 1.78882 1.22981 1.22981Z" fill="black"/>
<path d="M3.24222 2.12421H2.45962V1.3416C2.45962 1.26707 2.38508 1.19254 2.31055 1.19254C2.23601 1.19254 2.16148 1.26707 2.16148 1.3416V2.12421H1.3416C1.26707 2.12421 1.19254 2.19875 1.19254 2.27328C1.19254 2.34781 1.26707 2.42235 1.3416 2.42235H2.12421V3.20496C2.12421 3.27949 2.19875 3.35403 2.27328 3.35403C2.34781 3.35403 2.42235 3.27949 2.42235 3.20496V2.45962H3.20496C3.27949 2.45962 3.35403 2.38508 3.35403 2.31055C3.39129 2.19875 3.31676 2.12421 3.24222 2.12421Z" fill="black"/>
</svg>
